<svg width="85" height="73" viewBox="0 0 85 73" fill="none" xmlns="http://www.w3.org/2000/svg">
<path d="M31.8555 41.3576L61.5102 58.4747L37.3919 72.3991C36.8298 72.7209 36.193 72.8894 35.5452 72.8879C34.8975 72.8864 34.2615 72.7148 33.7009 72.3904C33.1403 72.066 32.6747 71.6001 32.3509 71.0394C32.027 70.4787 31.8562 69.8427 31.8555 69.1953V41.3576Z" fill="#269FE4"/>
<path d="M83.1851 45.9282L70.5207 53.2433L31.8553 30.962V20.331L10.9983 8.2998C10.1318 7.79639 9.5002 6.97024 9.24182 6.0023C8.98345 5.03436 9.11937 4.00353 9.61983 3.13556L10.3371 1.8921C10.8389 1.02407 11.6646 0.390371 12.6331 0.129971C13.6017 -0.130429 14.634 0.00372925 15.5037 0.503025L61.51 27.0524H61.5772L83.1851 39.5653C83.738 39.8923 84.1961 40.3577 84.5144 40.9156C84.8326 41.4734 85 42.1046 85 42.7467C85 43.3889 84.8326 44.02 84.5144 44.5779C84.1961 45.1358 83.738 45.6011 83.1851 45.9282Z" fill="#269FE4"/>
<path d="M6.39196 16.2759L31.8553 30.962L31.8555 41.3576L1.89781 24.0726C1.46631 23.8243 1.08803 23.4933 0.784602 23.0987C0.481177 22.7041 0.258561 22.2536 0.129487 21.7729C0.000414014 21.2922 -0.0325842 20.7908 0.0323803 20.2974C0.0973448 19.8039 0.258997 19.3281 0.508091 18.8972L1.22536 17.6649C1.47275 17.234 1.80281 16.8562 2.1966 16.553C2.59039 16.2499 3.04018 16.0274 3.52016 15.8983C4.00015 15.7693 4.50091 15.7362 4.99371 15.801C5.48652 15.8658 5.96168 16.0271 6.39196 16.2759Z" fill="#269FE4"/>
</svg>
